<svg width="73" height="74" viewBox="0 0 73 74" fill="none" xmlns="http://www.w3.org/2000/svg">
<mask id="mask0" mask-type="alpha" maskUnits="userSpaceOnUse" x="0" y="0" width="45" height="69">
<path fill-rule="evenodd" clip-rule="evenodd" d="M0 0.262024H44.5604V68.7902H0V0.262024Z" fill="white"/>
</mask>
<g mask="url(#mask0)">
<path fill-rule="evenodd" clip-rule="evenodd" d="M14.9399 65.0153C14.3523 65.6083 13.57 65.935 12.7392 65.935C11.9076 65.935 11.127 65.6083 10.5385 65.0153C9.95008 64.4214 9.62643 63.6327 9.62643 62.7942C9.62643 61.9548 9.95008 61.1661 10.5385 60.5722C11.1261 59.9783 11.9076 59.6525 12.7392 59.6525C13.57 59.6525 14.3514 59.9792 14.9399 60.5722C15.5284 61.1661 15.852 61.9548 15.852 62.7942C15.852 63.6327 15.5284 64.4214 14.9399 65.0153ZM12.7392 56.7973C11.725 56.7973 10.7497 57.0523 9.88518 57.5327C5.32979 51.638 2.82883 44.3162 2.82883 36.8153C2.82883 18.2333 17.8069 3.11793 36.2162 3.11793C38.4541 3.11793 40.6911 3.34327 42.865 3.78609C43.6291 3.94243 44.3777 3.44284 44.5317 2.66899C44.6866 1.89602 44.1916 1.14313 43.4258 0.986789C41.0667 0.506409 38.6419 0.261852 36.2162 0.261852C26.5421 0.261852 17.4469 4.06471 10.6069 10.9682C3.76691 17.8717 -0.000976562 27.0513 -0.000976562 36.8153C-0.000976562 45.0271 2.76306 53.0425 7.79268 59.4673C7.14537 60.4447 6.79748 61.5915 6.79748 62.7942C6.79748 64.396 7.41623 65.9018 8.53864 67.0346C9.65931 68.1666 11.1521 68.7902 12.7392 68.7902C14.3263 68.7902 15.8183 68.1666 16.9415 67.0346C18.0631 65.9018 18.6809 64.3952 18.6809 62.7933C18.6809 61.1923 18.0631 59.6857 16.9415 58.5538C15.8183 57.4209 14.3263 56.7973 12.7392 56.7973Z" fill="#003B49"/>
</g>
<mask id="mask1" mask-type="alpha" maskUnits="userSpaceOnUse" x="28" y="4" width="45" height="70">
<path fill-rule="evenodd" clip-rule="evenodd" d="M28.2461 4.47294H72.7407V73.125H28.2461V4.47294Z" fill="white"/>
</mask>
<g mask="url(#mask1)">
<path fill-rule="evenodd" clip-rule="evenodd" d="M57.8008 12.7058C57.2123 12.1108 56.8886 11.3216 56.8886 10.4798C56.8886 9.63981 57.2123 8.84969 57.8008 8.25469C58.3883 7.66056 59.1698 7.33331 60.0006 7.33331C60.8322 7.33331 61.6136 7.66056 62.2021 8.25469C63.4145 9.48144 63.4145 11.4791 62.2021 12.7058C61.6136 13.2999 60.8322 13.6272 60.0006 13.6272C59.1689 13.6272 58.3883 13.2999 57.8008 12.7058ZM64.9462 13.8109C66.4832 11.4782 66.2365 8.28881 64.202 6.23256C63.0805 5.09769 61.5877 4.47294 60.0006 4.47294C58.4134 4.47294 56.9215 5.09769 55.7991 6.23256C54.6776 7.36656 54.0597 8.87506 54.0597 10.4798C54.0597 12.0846 54.6776 13.5939 55.7991 14.7288C56.9215 15.8628 58.4134 16.4876 60.0006 16.4876C61.0148 16.4876 61.9901 16.2321 62.8546 15.7508C67.41 21.6562 69.9109 28.9913 69.9109 36.5067C69.9109 55.1214 54.9337 70.2642 36.5244 70.2642C34.309 70.2642 32.0919 70.0428 29.9388 69.6071C29.173 69.4531 28.4279 69.9553 28.2738 70.7297C28.1207 71.5041 28.6174 72.2583 29.3833 72.4132C31.7189 72.8848 34.1221 73.1254 36.5244 73.1254C46.1977 73.1254 55.2929 69.3157 62.1329 62.3997C68.9729 55.4837 72.7407 46.2874 72.7407 36.5067C72.7407 28.2782 69.9767 20.2483 64.9462 13.8109Z" fill="#003B49"/>
</g>
<path fill-rule="evenodd" clip-rule="evenodd" d="M25.3053 52.5752C24.7399 52.21 23.9963 52.2895 23.5192 52.7658L21.7804 54.5048L17.4866 50.207L19.2237 48.4689C19.6999 47.9935 19.7794 47.249 19.4142 46.6836C18.1184 44.6798 17.2079 42.482 16.7081 40.1531C16.5665 39.4951 15.9854 39.0249 15.3109 39.0249H12.8582L12.8617 32.9497H15.3109C15.9854 32.9497 16.5665 32.4796 16.7081 31.8207C17.2079 29.4927 18.1184 27.2949 19.4142 25.2902C19.7794 24.7257 19.6999 23.9811 19.2237 23.5058L17.4971 21.779L21.7944 17.4847L23.5192 19.2098C23.9963 19.686 24.7399 19.7647 25.3053 19.3994C27.3089 18.1043 29.5056 17.1937 31.8351 16.693C32.4931 16.5514 32.9631 15.9694 32.9631 15.2974V12.8576H39.0377V15.2966C39.0377 15.9694 39.5069 16.5514 40.1658 16.693C42.4944 17.1937 44.692 18.1043 46.6947 19.3994C47.2601 19.7647 48.0045 19.686 48.4799 19.2089L50.2056 17.4847L54.502 21.779L52.7754 23.5049C52.3001 23.9811 52.2214 24.7257 52.5867 25.2902C53.8816 27.2949 54.7912 29.4927 55.2919 31.8207C55.4326 32.4796 56.0154 32.9497 56.6882 32.9497H59.1436V39.0249H56.6882C56.0154 39.0249 55.4335 39.4951 55.2919 40.1531C54.7921 42.482 53.8816 44.6798 52.5867 46.6836C52.2214 47.249 52.3001 47.9935 52.7754 48.4689L54.5134 50.207L50.2205 54.5039L48.4808 52.7658C48.0045 52.2886 47.2601 52.21 46.6947 52.5752C44.6911 53.8703 42.4944 54.7809 40.1658 55.2816C39.5069 55.4232 39.0377 56.0052 39.0377 56.6781V59.1433H32.9631V56.6781C32.9631 56.0052 32.4931 55.4232 31.8351 55.2816C29.5064 54.7809 27.3089 53.8703 25.3053 52.5752ZM30.1059 60.5712C30.1059 61.3612 30.7463 62 31.5345 62H40.4664C41.2545 62 41.8941 61.3612 41.8941 60.5712V57.8019C43.7728 57.2959 45.5675 56.5523 47.2557 55.5796L49.2104 57.5354C49.4786 57.8028 49.8412 57.954 50.2213 57.954C50.5988 57.954 50.9632 57.8028 51.2314 57.5354L57.5446 51.2164C58.1012 50.6588 58.1012 49.7535 57.5446 49.1968L55.5908 47.2429C56.5624 45.5563 57.3078 43.7605 57.8128 41.8825H60.5714C61.3613 41.8825 62 41.2419 62 40.4537V31.5209C62 30.7318 61.3613 30.0922 60.5714 30.0922H57.8119C57.3069 28.2142 56.5624 26.4184 55.5908 24.7318L57.5332 22.7883C57.8006 22.5209 57.9517 22.1565 57.9517 21.7781C57.9509 21.3988 57.8006 21.0353 57.5332 20.7679L51.2148 14.4541C50.6574 13.8957 49.753 13.8957 49.1955 14.4541L47.2557 16.395C45.5675 15.4224 43.7728 14.6787 41.8941 14.1728V11.4288C41.8941 10.6397 41.2545 10 40.4664 10H31.5345C30.7463 10 30.1059 10.6397 30.1059 11.4288V14.1736C28.2281 14.6787 26.4325 15.4224 24.7452 16.395L22.8054 14.4541C22.2479 13.8966 21.3435 13.8957 20.7852 14.4541L14.4686 20.7688C14.1994 21.0353 14.0483 21.3988 14.0483 21.7781C14.0483 22.1565 14.1994 22.5209 14.4677 22.7883L16.4092 24.7318C15.4376 26.4184 14.6931 28.2142 14.1872 30.0922H11.4339C10.6457 30.0922 10.0052 30.7318 10.0052 31.5201L10 40.4528C10 40.8321 10.1503 41.1956 10.4185 41.463C10.6868 41.7313 11.0503 41.8825 11.4286 41.8825H14.1872C14.6931 43.7605 15.4376 45.5563 16.4092 47.2429L14.4572 49.1968C13.8988 49.7535 13.898 50.6588 14.4572 51.2164L20.7703 57.5354C21.0377 57.8019 21.4003 57.954 21.7795 57.954H21.7804C22.1588 57.954 22.5223 57.8028 22.7905 57.5354L24.7443 55.5796C26.4325 56.5523 28.2281 57.2959 30.1059 57.8019V60.5712Z" fill="#003B49"/>
<path fill-rule="evenodd" clip-rule="evenodd" d="M27.7839 36.0004C27.7839 30.9849 31.6941 26.9048 36.5 26.9048C41.3067 26.9048 45.2169 30.9849 45.2169 36.0004C45.2169 41.0151 41.3067 45.0952 36.5 45.0952C31.6941 45.0952 27.7839 41.016 27.7839 36.0004ZM48 36.0004C48 29.3833 42.8417 24 36.5 24C30.1592 24 25 29.3833 25 36.0004C25 42.6167 30.1592 48 36.5 48C42.8417 48 48 42.6167 48 36.0004Z" fill="#003B49"/>
<path fill-rule="evenodd" clip-rule="evenodd" d="M49.5 5C49.8954 5 50.2826 4.8395 50.5606 4.56068C50.8394 4.28095 51 3.89392 51 3.49954C51 3.107 50.8404 2.71996 50.5606 2.43932C50.2826 2.1605 49.8954 2 49.5 2C49.1046 2 48.7193 2.1605 48.4413 2.43932C48.1615 2.71996 48 3.10517 48 3.49954C48 3.89483 48.1615 4.28095 48.4413 4.56068C48.7193 4.8395 49.1046 5 49.5 5Z" fill="#003B49"/>
<path fill-rule="evenodd" clip-rule="evenodd" d="M23.5 67C23.1055 67 22.7183 67.1606 22.4404 67.4394C22.1606 67.7174 22 68.1055 22 68.5C22 68.8954 22.1606 69.2807 22.4404 69.5596C22.7183 69.8394 23.1055 70 23.5 70C23.8945 70 24.2817 69.8394 24.5606 69.5596C24.8394 69.2807 25 68.8936 25 68.5C25 68.1055 24.8394 67.7174 24.5606 67.4394C24.2817 67.1606 23.8945 67 23.5 67Z" fill="#003B49"/>
</svg>
