<svg width="64" height="65" viewBox="0 0 64 65" fill="none" xmlns="http://www.w3.org/2000/svg">
<mask id="mask0" mask-type="alpha" maskUnits="userSpaceOnUse" x="0" y="0" width="64" height="64">
<path fill-rule="evenodd" clip-rule="evenodd" d="M0.000488281 0.589172H63.4162V63.9045H0.000488281V0.589172Z" fill="white"/>
</mask>
<g mask="url(#mask0)">
<path fill-rule="evenodd" clip-rule="evenodd" d="M60.2861 6.93073C59.8654 7.356 59.3054 7.59046 58.7098 7.59046C58.1143 7.59046 57.5549 7.356 57.1335 6.93073C56.7122 6.50546 56.4805 5.94082 56.4805 5.3397C56.4805 4.73858 56.7122 4.17394 57.1335 3.74867C57.5549 3.3234 58.1143 3.08893 58.7098 3.08893C59.3054 3.08893 59.8654 3.3234 60.2861 3.74867C60.7075 4.17394 60.9397 4.73858 60.9397 5.3397C60.9397 5.94082 60.7075 6.50546 60.2861 6.93073V6.93073ZM50.7395 41.008C50.5806 41.1683 50.3963 41.1863 50.2986 41.1821C50.2026 41.1785 50.0195 41.1462 49.8731 40.9733L49.5531 40.5941C48.5338 39.3889 46.7875 39.1532 45.4903 40.0462L44.6755 40.6073C43.8381 41.1845 43.3374 42.1403 43.3374 43.1643V49.4034L37.7155 55.3446C36.1042 55.2896 34.8106 53.9486 34.8106 52.3097V49.1779C34.8106 49.0134 34.7922 48.8489 34.7566 48.688L34.2049 46.1908C33.9762 45.1531 33.0808 44.4287 32.0277 44.4287H30.522L28.2523 42.1385C27.4766 41.3555 27.2906 40.1671 27.7889 39.1813L28.2529 38.2656C28.4076 37.9594 28.7152 37.7692 29.0553 37.7692C30.2855 37.7692 31.2858 36.7589 31.2858 35.5178V33.7689L32.9469 32.9536C33.5365 32.6635 33.9685 32.1306 34.1315 31.4894C34.279 30.9104 34.1931 30.3009 33.8956 29.7907L35.2443 28.1022H37.5258L39.2189 28.8456C39.5009 28.9695 39.8002 29.0317 40.1077 29.0317H49.204C51.3243 32.2209 52.6115 36.0184 52.7507 40.1055C51.9904 40.1437 51.2817 40.4613 50.7395 41.008V41.008ZM26.4224 20.9563C26.8005 21.1686 26.9415 21.6388 26.743 22.027L25.1211 25.2C24.9712 25.4925 24.6642 25.6618 24.34 25.6313L21.3557 25.3508C20.3833 25.2604 19.4286 25.6074 18.7377 26.3048L18.6138 26.4298C17.9691 27.0806 17.6206 27.9807 17.658 28.9001C17.6669 29.1214 17.5886 29.3301 17.4369 29.4904C17.2858 29.6489 17.082 29.7369 16.8633 29.7369H14.9089C14.4515 29.7369 14.0082 29.8326 13.5981 30.0144C16.26 25.4967 20.5326 22.0551 25.6106 20.5011L26.4224 20.9563ZM16.5451 41.2921L19.5466 43.9789C19.5519 43.9843 19.5572 43.9891 19.5608 43.9933L20.951 45.3965C21.0535 45.4994 21.0618 45.6202 21.0577 45.683C21.0535 45.7458 21.0292 45.8643 20.9137 45.9528L20.6707 46.1388C20.2452 46.4672 19.9199 46.908 19.732 47.4146L18.8052 49.9088C18.7519 50.053 18.6138 50.1493 18.4615 50.1493C17.4132 50.1493 16.4538 50.7277 15.9572 51.6584L14.8935 53.6519C12.2772 50.1487 10.7312 45.8236 10.6553 41.1988H16.3009C16.3916 41.1988 16.4775 41.2323 16.5451 41.2921V41.2921ZM31.7083 3.08893C32.6648 3.08893 33.4423 3.87488 33.4423 4.83966C33.4423 5.80445 32.6648 6.58979 31.7083 6.58979C30.7519 6.58979 29.9744 5.80445 29.9744 4.83966C29.9744 3.87488 30.7519 3.08893 31.7083 3.08893V3.08893ZM2.47693 5.3397C2.47693 4.73858 2.70923 4.17394 3.13056 3.74867C3.5513 3.3234 4.1113 3.08893 4.70686 3.08893C5.30241 3.08893 5.86182 3.3234 6.28315 3.74867C6.70449 4.17394 6.93619 4.73858 6.93619 5.3397C6.93619 5.94082 6.70449 6.50546 6.28315 6.93073C5.86182 7.356 5.30241 7.59046 4.70686 7.59046C4.1113 7.59046 3.5513 7.356 3.13056 6.93073C2.70923 6.50546 2.47693 5.94082 2.47693 5.3397V5.3397ZM63.4162 5.3397C63.4162 4.07106 62.9267 2.87839 62.0378 1.9806C61.1489 1.0834 59.9667 0.588745 58.7098 0.588745C57.4529 0.588745 56.2713 1.0834 55.3818 1.9806C54.4929 2.87839 54.0029 4.07106 54.0029 5.3397C54.0029 6.60833 54.4929 7.80101 55.3818 8.6988C55.9466 9.26882 56.6298 9.67555 57.3753 9.89686V22.512L51.6669 28.2738C47.7107 21.8978 40.842 17.5428 32.9575 17.1253L32.9522 8.90037C34.6689 8.36385 35.9199 6.7465 35.9199 4.83966C35.9199 2.49618 34.0301 0.588745 31.7083 0.588745C29.386 0.588745 27.4974 2.49618 27.4974 4.83966C27.4974 6.75009 28.7525 8.37043 30.4746 8.90396L30.4805 17.1235C28.7987 17.2108 27.1637 17.4794 25.5934 17.9064C25.4749 17.9208 25.3599 17.9531 25.2503 18.0009C19.5946 19.632 14.804 23.3506 11.7498 28.2738L6.04138 22.512V9.89686C6.78745 9.67555 7.47012 9.26882 8.03486 8.6988C8.92375 7.80101 9.41323 6.60833 9.41323 5.3397C9.41323 4.07106 8.92375 2.87839 8.03486 1.9806C7.14538 1.0834 5.96375 0.588745 4.70686 0.588745C3.44997 0.588745 2.26775 1.0834 1.37886 1.9806C0.48997 2.87839 0.000488281 4.07106 0.000488281 5.3397C0.000488281 6.60833 0.48997 7.80101 1.37886 8.6988C1.9916 9.31727 2.7436 9.74433 3.56434 9.95009V23.0294C3.56434 23.3614 3.69471 23.679 3.92701 23.9141L10.5018 30.5497C9.01086 33.666 8.17471 37.1585 8.17471 40.8447C8.17471 51.7212 15.4589 61.1878 25.8885 63.8656C25.991 63.8919 26.0941 63.9045 26.1949 63.9045C26.7472 63.9045 27.252 63.5283 27.3943 62.963C27.5626 62.2937 27.1626 61.6136 26.4989 61.4432C22.6369 60.4509 19.258 58.4178 16.6221 55.6862L18.1386 52.8444C18.2026 52.7248 18.3264 52.6501 18.4615 52.6501C19.6408 52.6501 20.711 51.9012 21.1246 50.7869L22.0515 48.2921C22.0757 48.2275 22.1172 48.1701 22.1729 48.1282L22.4153 47.9416C23.0672 47.4403 23.4743 46.6777 23.5294 45.8511C23.5833 45.0245 23.2835 44.2146 22.7021 43.6284L21.3113 42.2246C21.271 42.1834 21.2295 42.1445 21.188 42.108L18.1889 39.4212C17.6675 38.9558 16.9972 38.6987 16.3009 38.6987H10.759C10.9048 37.2374 11.1981 35.8193 11.6236 34.4585L14.4414 32.3914C14.5777 32.2903 14.7395 32.2376 14.9089 32.2376H16.8633C17.7623 32.2376 18.6014 31.8764 19.2242 31.2214C19.8476 30.5665 20.17 29.7058 20.1332 28.799C20.1243 28.5753 20.2085 28.3558 20.3661 28.1979L20.49 28.0729C20.6577 27.903 20.8894 27.8192 21.1258 27.8408L24.1107 28.1213C25.4458 28.2469 26.7069 27.5501 27.3226 26.3472L28.9445 23.1742C29.5163 22.0557 29.4026 20.7721 28.7483 19.8031C29.716 19.6649 30.7039 19.592 31.7083 19.592C37.8618 19.592 43.4067 22.2698 47.2597 26.5321H40.1587L38.4663 25.7886C38.1842 25.6648 37.8849 25.602 37.5774 25.602H35.1264C34.4485 25.602 33.8156 25.9076 33.3901 26.44L31.8553 28.3606C31.2941 29.0634 31.2106 30.0401 31.62 30.8249L30.0639 31.5893C29.3012 31.9631 28.8088 32.758 28.8088 33.6127V35.2785C27.6325 35.3629 26.5889 36.0555 26.0461 37.128L25.5827 38.0449C24.5943 39.999 24.9629 42.355 26.5 43.9066L28.842 46.2704C29.2627 46.6951 29.8233 46.9295 30.4195 46.9295H31.8304L32.3335 49.2054V52.3097C32.3335 55.3632 34.794 57.8472 37.8197 57.8472C38.4254 57.8472 39.0138 57.593 39.4328 57.151L45.1969 51.0578C45.5952 50.6367 45.815 50.0847 45.815 49.5033V43.1643C45.815 42.9675 45.911 42.7833 46.0722 42.672L46.887 42.1116C47.1365 41.9393 47.4725 41.9842 47.668 42.2169L47.9886 42.5961C48.5421 43.251 49.3486 43.6458 50.2008 43.6799C51.0541 43.7176 51.8885 43.3844 52.4912 42.7761C52.5486 42.7181 52.6168 42.6744 52.6897 42.6445C51.9436 51.5932 45.6799 59.1792 36.9463 61.4354C36.2832 61.6065 35.8837 62.2877 36.0532 62.9564C36.2233 63.6252 36.8977 64.0289 37.5602 63.8578C47.9709 61.168 55.2414 51.7044 55.2414 40.8447C55.2414 37.1585 54.4058 33.666 52.9149 30.5497L59.4897 23.9141C59.722 23.679 59.8523 23.3614 59.8523 23.0294V9.95009C60.6725 9.74433 61.4251 9.31727 62.0378 8.6988C62.9267 7.80101 63.4162 6.60833 63.4162 5.3397V5.3397Z" fill="#003B49"/>
</g>
<mask id="mask1" mask-type="alpha" maskUnits="userSpaceOnUse" x="31" y="62" width="3" height="3">
<path fill-rule="evenodd" clip-rule="evenodd" d="M31.2505 62.4919H33.7591V65H31.2505V62.4919Z" fill="white"/>
</mask>
<g mask="url(#mask1)">
<path fill-rule="evenodd" clip-rule="evenodd" d="M32.5051 62.4919C32.1751 62.4919 31.8511 62.6263 31.6177 62.8591C31.3849 63.0925 31.2505 63.4165 31.2505 63.7459C31.2505 64.0759 31.3849 64.3999 31.6177 64.6321C31.8511 64.8661 32.1751 65.0005 32.5051 65.0005C32.8345 65.0005 33.1585 64.8661 33.3919 64.6321C33.6247 64.3999 33.7591 64.0759 33.7591 63.7459C33.7591 63.4165 33.6247 63.0925 33.3919 62.8591C33.1585 62.6263 32.8345 62.4919 32.5051 62.4919" fill="#003B49"/>
</g>
</svg>
