<svg width="50" height="66" viewBox="0 0 50 66" fill="none" xmlns="http://www.w3.org/2000/svg">
<path fill-rule="evenodd" clip-rule="evenodd" d="M24.8025 8.53337C33.8818 8.53337 41.2689 15.92 41.2689 25C41.2689 34.0805 33.8818 41.4671 24.8025 41.4671C15.7226 41.4671 8.33609 34.0805 8.33609 25C8.33609 15.92 15.7226 8.53337 24.8025 8.53337M5.80225 25C5.80225 35.477 14.3256 44 24.8025 44C35.2789 44 43.8022 35.477 43.8022 25C43.8022 14.5235 35.2789 6 24.8025 6C14.3256 6 5.80225 14.5235 5.80225 25" fill="#003B49"/>
<path fill-rule="evenodd" clip-rule="evenodd" d="M21.6424 22.2096C22.0468 22.149 22.3954 21.8946 22.5782 21.5287L24.8024 17.0708L27.026 21.5287C27.2093 21.8946 27.5584 22.149 27.9623 22.2096L32.8775 22.9515L29.3353 26.4474C29.0446 26.7356 28.9112 27.1465 28.9777 27.5508L29.7931 32.4655L25.3805 30.1699C25.1992 30.075 25.0008 30.0281 24.8024 30.0281C24.6039 30.0281 24.405 30.075 24.2236 30.1699L19.8111 32.4655L20.626 27.5508C20.6935 27.1465 20.5606 26.7356 20.2684 26.4474L16.7272 22.9515L21.6424 22.2096ZM13.1765 22.9778L18.0428 27.7825L16.9232 34.5354C16.8451 35.0059 17.0385 35.4793 17.4238 35.7594C17.8086 36.0396 18.3173 36.0774 18.7398 35.8584L24.8024 32.7032L30.8644 35.8584C31.2834 36.0764 31.7926 36.0421 32.1804 35.7594C32.5652 35.4793 32.7591 35.0059 32.681 34.5354L31.5614 27.7825L36.4272 22.9778C36.7662 22.6437 36.8881 22.1465 36.7405 21.6932C36.5934 21.2395 36.2036 20.9088 35.7337 20.8377L28.9802 19.8191L25.925 13.6955C25.7125 13.269 25.2778 13 24.8024 13C24.3269 13 23.8922 13.269 23.6797 13.6955L20.624 19.8191L13.871 20.8377C13.4011 20.9083 13.0108 21.2395 12.8637 21.6932C12.7166 22.1465 12.8385 22.6437 13.1765 22.9778V22.9778Z" fill="#003B49"/>
<mask id="mask0" mask-type="alpha" maskUnits="userSpaceOnUse" x="24" y="0" width="3" height="3">
<path fill-rule="evenodd" clip-rule="evenodd" d="M24.2344 0.192505H26.7269V2.6849H24.2344V0.192505Z" fill="white"/>
</mask>
<g mask="url(#mask0)">
<path fill-rule="evenodd" clip-rule="evenodd" d="M26.7269 1.43891C26.7269 2.12691 26.1689 2.68491 25.4809 2.68491C24.7924 2.68491 24.2344 2.12691 24.2344 1.43891C24.2344 0.750413 24.7924 0.192413 25.4809 0.192413C26.1689 0.192413 26.7269 0.750413 26.7269 1.43891" fill="#003B49"/>
</g>
<mask id="mask1" mask-type="alpha" maskUnits="userSpaceOnUse" x="0" y="1" width="50" height="65">
<path fill-rule="evenodd" clip-rule="evenodd" d="M0.802246 1.3974H49.6542V65.9999H0.802246V1.3974Z" fill="white"/>
</mask>
<g mask="url(#mask1)">
<path fill-rule="evenodd" clip-rule="evenodd" d="M38.6081 53.7825C37.9788 53.653 37.3501 54.0041 37.135 54.6049L34.6086 61.6695L27.384 49.0656C31.7847 48.6771 36.0167 47.1064 39.5912 44.5284L45.7208 55.2478L38.6081 53.7825ZM15.8483 61.6695L13.322 54.6049C13.1069 54.0041 12.4782 53.653 11.8489 53.7825L4.73617 55.2478L10.8663 44.5284C14.4402 47.1064 18.6723 48.6771 23.073 49.0656L15.8483 61.6695ZM19.1695 1.43749C8.35547 4.17619 0.802246 13.8341 0.802246 24.923C0.802246 31.8099 3.72058 38.2997 8.8434 42.8957L1.09779 56.4403C0.849183 56.8763 0.88013 57.4168 1.17774 57.8212C1.47484 58.2265 1.98289 58.421 2.47753 58.3186L11.2733 56.5063L14.3649 65.1508C14.5326 65.6212 14.9617 65.9502 15.463 65.9948C15.9644 66.0393 16.4446 65.7885 16.6937 65.3545L25.229 50.4654L33.7633 65.3545C33.9933 65.7558 34.4214 65.9994 34.8799 65.9994C34.9181 65.9994 34.9558 65.9978 34.9934 65.9948C35.4948 65.9502 35.9244 65.6206 36.0926 65.1508L39.1832 56.5063L47.9789 58.3186C48.4731 58.421 48.9816 58.226 49.2792 57.8212C49.5774 57.4168 49.6078 56.8763 49.3587 56.4403L41.6136 42.8957C46.7364 38.2997 49.6542 31.8099 49.6542 24.923C49.6542 13.8341 42.1015 4.17619 31.2875 1.43749C30.5994 1.26296 29.8995 1.67446 29.7236 2.35721C29.5482 3.03997 29.9629 3.73501 30.651 3.90954C40.3262 6.36009 47.084 15.0015 47.084 24.923C47.084 36.9986 37.2005 46.6094 25.229 46.6094C13.2482 46.6094 3.37346 36.9904 3.37346 24.923C3.37346 15.0015 10.1303 6.36009 19.8055 3.90954C20.4935 3.73501 20.9093 3.03997 20.7339 2.35721C20.558 1.67446 19.8581 1.26296 19.1695 1.43749V1.43749Z" fill="#003B49"/>
</g>
</svg>
