<?xml version="1.0" standalone="no"?>
<!DOCTYPE svg PUBLIC "-//W3C//DTD SVG 20010904//EN"
 "http://www.w3.org/TR/2001/REC-SVG-20010904/DTD/svg10.dtd">
<svg version="1.0" xmlns="http://www.w3.org/2000/svg"
 width="260.000000pt" height="194.000000pt" viewBox="0 0 260.000000 194.000000"
 preserveAspectRatio="xMidYMid meet">

<g transform="translate(0.000000,194.000000) scale(0.100000,-0.100000)"
fill="#000000" stroke="none">
<path d="M1211 1618 c-35 -35 -41 -47 -41 -83 0 -26 -6 -48 -15 -55 -21 -17
-19 -37 4 -43 32 -8 44 7 37 46 -5 29 -2 40 17 63 l24 28 34 -20 c25 -15 34
-27 34 -46 0 -15 3 -30 8 -34 4 -4 7 -16 7 -26 0 -14 8 -18 40 -18 38 0 40 2
40 29 0 17 -4 33 -10 36 -5 3 -9 25 -8 47 1 31 -3 45 -17 52 -10 6 -31 23 -47
39 -39 37 -59 34 -107 -15z"/>
<path d="M1777 1620 c-14 -9 -16 -20 -11 -68 4 -31 10 -61 14 -65 4 -5 33 -1
64 8 31 9 63 14 71 11 8 -3 17 -22 21 -42 l7 -38 23 28 c29 33 30 64 4 115
-17 32 -28 40 -58 45 -80 14 -118 16 -135 6z"/>
<path d="M1040 1565 c-7 -9 -10 -18 -7 -21 3 -3 10 4 17 15 13 25 8 27 -10 6z"/>
<path d="M582 1540 c-38 -24 -49 -48 -62 -143 -6 -39 -17 -84 -25 -100 -9 -18
-15 -64 -16 -125 -1 -81 1 -98 16 -109 17 -12 16 -22 -18 -202 -21 -104 -37
-194 -37 -200 0 -25 398 -6 425 21 2 2 -4 29 -13 61 l-17 57 -43 0 c-53 0 -90
18 -130 64 -36 41 -47 87 -38 157 7 54 42 96 99 120 17 7 26 17 23 25 -6 17 8
18 35 4 38 -21 54 2 73 102 9 51 20 104 23 117 4 16 2 22 -5 17 -8 -5 -10 -1
-5 9 4 13 7 14 14 4 6 -11 16 -7 40 16 18 17 39 36 47 43 8 7 12 15 10 18 -3
2 -13 -5 -23 -16 -10 -11 -23 -20 -30 -20 -6 0 -17 -6 -23 -12 -7 -7 -22 -14
-33 -14 -51 -4 -54 -4 -42 -12 9 -6 7 -24 -8 -75 -12 -37 -25 -67 -29 -67 -4
0 -32 16 -61 36 -31 21 -66 36 -81 36 -44 -1 -37 41 20 117 l25 34 13 -24 c13
-24 13 -24 14 8 0 24 -7 37 -29 52 -36 26 -67 26 -109 1z"/>
<path d="M1001 1522 c-17 -31 -13 -40 5 -14 9 13 14 26 11 29 -3 2 -10 -4 -16
-15z"/>
<path d="M1810 1395 c0 -9 5 -15 11 -13 6 2 11 8 11 13 0 5 -5 11 -11 13 -6 2
-11 -4 -11 -13z"/>
<path d="M1922 1388 c6 -18 28 -21 28 -4 0 9 -7 16 -16 16 -9 0 -14 -5 -12
-12z"/>
<path d="M2203 1295 c-31 -22 -31 -77 -1 -107 16 -16 23 -18 26 -8 3 7 -3 17
-12 22 -19 11 -21 59 -4 76 18 18 53 15 71 -6 24 -27 21 -47 -10 -70 -34 -25
-23 -41 12 -18 35 23 42 61 18 94 -24 32 -68 39 -100 17z"/>
<path d="M1726 1253 c-12 -13 -6 -109 9 -129 13 -17 14 -12 15 53 0 66 -8 92
-24 76z"/>
<path d="M2235 1250 c-4 -6 -3 -16 3 -22 6 -6 12 -6 17 2 4 6 3 16 -3 22 -6 6
-12 6 -17 -2z"/>
<path d="M1982 1176 c-6 -35 -14 -71 -18 -80 -12 -31 17 -16 30 17 22 52 30
127 14 127 -9 0 -18 -23 -26 -64z"/>
<path d="M1080 980 l0 -180 274 0 c267 0 274 1 306 23 55 37 74 70 77 140 5
79 -24 143 -77 169 -46 24 -157 24 -205 1 -32 -15 -36 -15 -48 -1 -10 12 -44
17 -169 22 l-158 6 0 -180z m76 10 c19 0 24 5 24 25 0 14 5 25 10 25 6 0 10
-27 10 -60 0 -33 -4 -60 -10 -60 -5 0 -10 11 -10 25 0 20 -5 25 -25 25 -20 0
-25 -5 -25 -25 0 -14 -4 -25 -10 -25 -5 0 -10 24 -10 53 0 57 13 87 18 43 3
-20 9 -26 28 -26z m144 40 c0 -5 -11 -10 -25 -10 -16 0 -25 -6 -25 -15 0 -8 9
-15 20 -15 11 0 20 -4 20 -10 0 -5 -9 -10 -20 -10 -14 0 -20 -7 -20 -21 0 -17
5 -20 25 -17 14 3 25 1 25 -3 0 -5 -16 -9 -35 -9 l-35 0 0 60 0 60 35 0 c19 0
35 -4 35 -10z m88 -50 c12 -33 16 -60 11 -60 -5 0 -12 7 -15 15 -4 8 -17 15
-30 15 -15 0 -24 -6 -24 -15 0 -8 -5 -15 -11 -15 -6 0 -9 6 -7 13 2 6 10 33
17 60 7 26 19 47 26 47 7 0 22 -27 33 -60z m52 6 c0 -52 1 -55 28 -59 22 -3
20 -4 -10 -6 l-38 -1 0 60 c0 33 4 60 10 60 6 0 10 -24 10 -54z m108 40 c-13
-9 -18 -27 -18 -60 0 -25 -4 -46 -10 -46 -5 0 -10 23 -10 50 0 38 -4 50 -15
50 -8 0 -15 5 -15 10 0 6 19 10 43 10 37 -1 40 -2 25 -14z m42 -11 c0 -20 5
-25 25 -25 20 0 25 5 25 25 0 14 5 25 10 25 6 0 10 -27 10 -60 0 -33 -4 -60
-10 -60 -5 0 -10 11 -10 25 0 20 -5 25 -25 25 -20 0 -25 -5 -25 -25 0 -14 -4
-25 -10 -25 -6 0 -10 27 -10 60 0 33 4 60 10 60 6 0 10 -11 10 -25z"/>
<path d="M1347 991 c-3 -14 0 -21 9 -21 16 0 18 9 5 28 -6 10 -10 9 -14 -7z"/>
<path d="M840 1043 c0 -37 -1 -38 -37 -38 -32 0 -39 -4 -41 -22 -3 -21 1 -23
37 -23 l41 0 0 -40 c0 -36 3 -40 25 -40 23 0 25 4 25 40 l0 40 40 0 c33 0 40
3 40 19 0 16 -8 20 -37 23 -36 3 -38 5 -41 41 -3 32 -7 37 -28 37 -21 0 -24
-4 -24 -37z"/>
<path d="M1762 1048 c2 -12 19 -33 38 -46 31 -20 36 -30 41 -75 8 -72 35 -124
82 -158 34 -25 49 -29 104 -29 112 0 168 44 204 161 22 72 25 119 6 119 -9 0
-18 -23 -25 -61 -15 -80 -46 -144 -85 -171 -43 -31 -133 -32 -174 -2 -36 26
-83 117 -83 161 0 28 5 35 34 47 38 16 50 31 40 48 -5 8 -10 7 -18 -4 -13 -18
-47 -35 -63 -32 -7 1 -20 2 -29 3 -8 0 -29 14 -45 31 -28 28 -30 28 -27 8z"/>
<path d="M1164 279 c3 -17 6 -35 6 -40 0 -21 28 -6 35 18 5 20 2 31 -11 40
-28 21 -37 15 -30 -18z"/>
<path d="M495 269 c-8 -11 25 -40 37 -33 14 9 9 23 -11 34 -14 7 -22 7 -26 -1z"/>
<path d="M676 272 c-9 -8 14 -32 30 -32 21 0 17 27 -5 33 -11 3 -22 2 -25 -1z"/>
<path d="M1324 236 c-24 -18 -16 -26 35 -33 47 -6 54 6 16 31 -29 19 -27 19
-51 2z"/>
<path d="M2062 234 c-27 -18 -29 -44 -4 -44 23 0 42 19 42 42 0 22 -9 23 -38
2z"/>
<path d="M1752 228 c-8 -8 -8 -15 -1 -24 13 -16 59 2 59 23 0 16 -42 17 -58 1z"/>
</g>
</svg>
