<?xml version="1.0" encoding="UTF-8"?>
<svg width="52px" height="64px" viewBox="0 0 52 64" version="1.1" xmlns="http://www.w3.org/2000/svg" xmlns:xlink="http://www.w3.org/1999/xlink">
    <!-- Generator: Sketch 64 (93537) - https://sketch.com -->
    <title>Group 29</title>
    <desc>Created with Sketch.</desc>
    <defs>
        <polygon id="path-1" points="4.90566038e-05 -8.61328125e-05 51.9998774 -8.61328125e-05 51.9998774 63 4.90566038e-05 63"></polygon>
        <polygon id="path-3" points="0 63.8181818 52 63.8181818 52 0.818181818 0 0.818181818"></polygon>
    </defs>
    <g id="Careers" stroke="none" stroke-width="1" fill="none" fill-rule="evenodd">
        <g id="Part-Time-Jobs" transform="translate(-208.000000, -529.000000)">
            <g id="Group-29" transform="translate(208.000000, 529.000000)">
                <path d="M43.7805027,18.8181818 L26.2194973,18.8181818 C25.545969,18.8181818 25,19.4897318 25,20.3181818 C25,21.1464818 25.545969,21.8181818 26.2194973,21.8181818 L43.7805027,21.8181818 C44.4539091,21.8181818 45,21.1464818 45,20.3181818 C45,19.4897318 44.4539091,18.8181818 43.7805027,18.8181818" id="Fill-1" fill="#003B49"></path>
                <path d="M40.5605,25.2576818 C40.2815,24.9786818 39.8945,24.8181818 39.5,24.8181818 C39.1055,24.8181818 38.7185,24.9788318 38.43935,25.2576818 C38.1605,25.5366818 38,25.9236818 38,26.3181818 C38,26.7126818 38.1605,27.0996818 38.43935,27.3788318 C38.7185,27.6576818 39.1055,27.8181818 39.5,27.8181818 C39.8945,27.8181818 40.2815,27.6576818 40.5605,27.3788318 C40.83935,27.0996818 41,26.7126818 41,26.3181818 C41,25.9236818 40.83935,25.5366818 40.5605,25.2576818" id="Fill-3" fill="#003B49"></path>
                <path d="M26.5605,6.25768182 C26.2815,5.97868182 25.8945,5.81818182 25.5,5.81818182 C25.1055,5.81818182 24.7185,5.97868182 24.4395,6.25768182 C24.1605,6.53668182 24,6.92368182 24,7.31818182 C24,7.71268182 24.1605,8.09968182 24.4395,8.37868182 C24.7185,8.65768182 25.1055,8.81818182 25.5,8.81818182 C25.8945,8.81818182 26.2815,8.65768182 26.5605,8.37868182 C26.8395,8.09968182 27,7.71268182 27,7.31818182 C27,6.92368182 26.8395,6.53668182 26.5605,6.25768182" id="Fill-5" fill="#003B49"></path>
                <path d="M33.7480752,24.8181818 L26.2519248,24.8181818 C25.5604867,24.8181818 25,25.4897318 25,26.3181818 C25,27.1464818 25.5604867,27.8181818 26.2519248,27.8181818 L33.7480752,27.8181818 C34.4393881,27.8181818 35,27.1464818 35,26.3181818 C35,25.4897318 34.4393881,24.8181818 33.7480752,24.8181818" id="Fill-7" fill="#003B49"></path>
                <path d="M43.7805027,32.8181818 L26.2194973,32.8181818 C25.545969,32.8181818 25,33.4897318 25,34.3181818 C25,35.1464818 25.545969,35.8181818 26.2194973,35.8181818 L43.7805027,35.8181818 C44.4539091,35.8181818 45,35.1464818 45,34.3181818 C45,33.4897318 44.4539091,32.8181818 43.7805027,32.8181818" id="Fill-9" fill="#003B49"></path>
                <path d="M40.5605,39.2576818 C40.2815,38.9788318 39.8945,38.8181818 39.5,38.8181818 C39.1055,38.8181818 38.7185,38.9788318 38.43935,39.2576818 C38.1605,39.5366818 38,39.9236818 38,40.3181818 C38,40.7126818 38.1605,41.0996818 38.43935,41.3788318 C38.7185,41.6576818 39.1055,41.8181818 39.5,41.8181818 C39.8945,41.8181818 40.2815,41.6576818 40.5605,41.3788318 C40.83935,41.0996818 41,40.7126818 41,40.3181818 C41,39.9236818 40.83935,39.5366818 40.5605,39.2576818" id="Fill-11" fill="#003B49"></path>
                <path d="M33.7480752,38.8181818 L26.2519248,38.8181818 C25.5604867,38.8181818 25,39.4897318 25,40.3181818 C25,41.1464818 25.5604867,41.8181818 26.2519248,41.8181818 L33.7480752,41.8181818 C34.4393881,41.8181818 35,41.1464818 35,40.3181818 C35,39.4897318 34.4393881,38.8181818 33.7480752,38.8181818" id="Fill-13" fill="#003B49"></path>
                <path d="M43.7805027,44.8181818 L26.2194973,44.8181818 C25.545969,44.8181818 25,45.4897318 25,46.3181818 C25,47.1464818 25.545969,47.8181818 26.2194973,47.8181818 L43.7805027,47.8181818 C44.4539091,47.8181818 45,47.1464818 45,46.3181818 C45,45.4897318 44.4539091,44.8181818 43.7805027,44.8181818" id="Fill-15" fill="#003B49"></path>
                <path d="M40.5605,51.2576818 C40.2815,50.9788318 39.8945,50.8181818 39.5,50.8181818 C39.1055,50.8181818 38.7185,50.9788318 38.43935,51.2576818 C38.1605,51.5366818 38,51.9236818 38,52.3181818 C38,52.7126818 38.1605,53.0996818 38.43935,53.3788318 C38.7185,53.6576818 39.1055,53.8181818 39.5,53.8181818 C39.8945,53.8181818 40.2815,53.6576818 40.5605,53.3788318 C40.83935,53.0996818 41,52.7126818 41,52.3181818 C41,51.9236818 40.83935,51.5366818 40.5605,51.2576818" id="Fill-17" fill="#003B49"></path>
                <path d="M33.7480752,50.8181818 L26.2519248,50.8181818 C25.5604867,50.8181818 25,51.4897318 25,52.3181818 C25,53.1464818 25.5604867,53.8181818 26.2519248,53.8181818 L33.7480752,53.8181818 C34.4393881,53.8181818 35,53.1464818 35,52.3181818 C35,51.4897318 34.4393881,50.8181818 33.7480752,50.8181818" id="Fill-19" fill="#003B49"></path>
                <g id="Group-23" transform="translate(0.000000, 0.818182)">
                    <mask id="mask-2" fill="white">
                        <use xlink:href="#path-1"></use>
                    </mask>
                    <g id="Clip-22"></g>
                    <path d="M49.5472189,57.0006404 C49.5472189,58.9516717 47.9650208,60.5392225 46.0201717,60.5392225 L5.97980377,60.5392225 C4.03495472,60.5392225 2.45287925,58.9516717 2.45287925,57.0006404 L2.45287925,10.7983846 C2.45287925,8.84710723 4.03495472,7.25980254 5.97980377,7.25980254 L13.6260113,7.25980254 C13.2242377,8.18413066 13.0000491,9.20320488 13.0000491,10.274451 L13.0000491,11.0742557 C13.0000491,11.7537205 13.5491151,12.3047244 14.2264642,12.3047244 L37.7710585,12.3047244 C38.4484075,12.3047244 38.9974736,11.7537205 38.9974736,11.0742557 L38.9974736,10.274451 C38.9974736,9.20332793 38.7730396,8.18413066 38.3713887,7.25980254 L46.0201717,7.25980254 C47.9650208,7.25980254 49.5472189,8.84710723 49.5472189,10.7983846 L49.5472189,57.0006404 Z M20.5425019,5.16788262 L22.4539925,5.16788262 C23.005634,5.16788262 23.4892094,4.79837285 23.636134,4.26496465 C23.9285113,3.20257793 24.9005679,2.46085137 26.0000491,2.46085137 C27.0994075,2.46085137 28.0714642,3.20257793 28.3637189,4.26496465 C28.5106434,4.79837285 28.9944642,5.16788262 29.545983,5.16788262 L31.4548981,5.16788262 C34.1168321,5.16788262 36.3079453,7.22891777 36.5266151,9.84378691 L15.4707849,9.84378691 C15.6894547,7.22891777 17.8806906,5.16788262 20.5425019,5.16788262 L20.5425019,5.16788262 Z M46.0201717,4.79886504 L36.6529358,4.79886504 C35.2988509,3.50416582 33.4684264,2.70694512 31.4548981,2.70694512 L30.3805585,2.70694512 C29.5591057,1.07558965 27.8718038,-8.61328125e-05 25.9999264,-8.61328125e-05 C24.1279264,-8.61328125e-05 22.4407472,1.07558965 21.6191717,2.70694512 L20.5423792,2.70694512 C18.5287283,2.70694512 16.6983038,3.50416582 15.3442189,4.79886504 L5.97980377,4.79886504 C2.68258679,4.79886504 4.90566038e-05,7.49026934 4.90566038e-05,10.7983846 L4.90566038e-05,57.0005174 C4.90566038e-05,60.3086326 2.68258679,63.0000369 5.97980377,63.0000369 L46.0200491,63.0000369 C49.3173887,63.0000369 51.9999264,60.3086326 51.9999264,57.0005174 L51.9999264,10.7983846 C51.9999264,7.49026934 49.3175113,4.79886504 46.0201717,4.79886504 L46.0201717,4.79886504 Z" id="Fill-21" fill="#003B49" mask="url(#mask-2)"></path>
                </g>
                <path d="M18.6423496,18.1956473 C18.1656046,17.6923815 17.3923594,17.6923815 16.9153701,18.1955184 L11.6935222,23.7066976 L10.0848741,22.0088683 C9.60800699,21.5057314 8.83476173,21.5057314 8.35765036,22.0088683 C7.88078321,22.5121341 7.88078321,23.328185 8.35765036,23.8315797 L10.8299104,26.4408291 C11.0685271,26.6923976 11.3809026,26.8181818 11.6935222,26.8181818 C12.0058977,26.8181818 12.3186395,26.6923976 12.5568899,26.4408291 L18.6423496,20.0184875 C19.1192168,19.5150929 19.1192168,18.6990419 18.6423496,18.1956473" id="Fill-24" fill="#003B49"></path>
                <mask id="mask-4" fill="white">
                    <use xlink:href="#path-3"></use>
                </mask>
                <g id="Clip-27"></g>
                <path d="M10.6470588,52.171123 L14.3529412,52.171123 L14.3529412,48.4652406 L10.6470588,48.4652406 L10.6470588,52.171123 Z M15.6764706,45.8181818 L9.32352941,45.8181818 C8.59254412,45.8181818 8,46.4107259 8,47.1417112 L8,53.4946524 C8,54.2256377 8.59254412,54.8181818 9.32352941,54.8181818 L15.6764706,54.8181818 C16.4074559,54.8181818 17,54.2256377 17,53.4946524 L17,47.1417112 C17,46.4107259 16.4074559,45.8181818 15.6764706,45.8181818 L15.6764706,45.8181818 Z" id="Fill-26" fill="#003B49" mask="url(#mask-4)"></path>
                <path d="M10.6470588,39.171123 L14.3529412,39.171123 L14.3529412,35.4652406 L10.6470588,35.4652406 L10.6470588,39.171123 Z M15.6764706,32.8181818 L9.32352941,32.8181818 C8.59254412,32.8181818 8,33.4107259 8,34.1417112 L8,40.4946524 C8,41.2256377 8.59254412,41.8181818 9.32352941,41.8181818 L15.6764706,41.8181818 C16.4074559,41.8181818 17,41.2256377 17,40.4946524 L17,34.1417112 C17,33.4107259 16.4074559,32.8181818 15.6764706,32.8181818 L15.6764706,32.8181818 Z" id="Fill-28" fill="#003B49" mask="url(#mask-4)"></path>
            </g>
        </g>
    </g>
</svg>