<?xml version="1.0" encoding="UTF-8"?>
<svg width="52px" height="62px" viewBox="0 0 52 62" version="1.1" xmlns="http://www.w3.org/2000/svg" xmlns:xlink="http://www.w3.org/1999/xlink">
    <!-- Generator: Sketch 64 (93537) - https://sketch.com -->
    <title>Group 13</title>
    <desc>Created with Sketch.</desc>
    <defs>
        <polygon id="path-1" points="0 0.0648160339 2.93111575 0.0648160339 2.93111575 2.8976625 0 2.8976625"></polygon>
        <polygon id="path-3" points="0.0143463312 0.0300210526 51.9376436 0.0300210526 51.9376436 61.9999782 0.0143463312 61.9999782"></polygon>
    </defs>
    <g id="Careers" stroke="none" stroke-width="1" fill="none" fill-rule="evenodd">
        <g id="Part-Time-Jobs" transform="translate(-1060.000000, -531.000000)">
            <g id="Group-13" transform="translate(1060.000000, 531.000000)">
                <path d="M18.8327609,3 L15.1685989,3 C14.5226896,3 14,3.66911304 14,4.49812047 C14,5.32699365 14.5226896,6 15.1685989,6 L18.8327609,6 C19.4771012,6 20,5.32699365 20,4.49812047 C20,3.66911304 19.4771012,3 18.8327609,3" id="Fill-1" fill="#003B49"></path>
                <g id="Group-5" transform="translate(0.000000, 24.000000)">
                    <mask id="mask-2" fill="white">
                        <use xlink:href="#path-1"></use>
                    </mask>
                    <g id="Clip-4"></g>
                    <path d="M0.122321739,2.0226625 C0.352408696,2.5686625 0.898278261,2.8976625 1.47362609,2.8976625 C1.6544087,2.8976625 1.84053913,2.8661625 2.01949565,2.7944125 C2.76453913,2.5074125 3.12610435,1.6936625 2.82493043,0.9779125 L2.80849565,0.9394125 C2.50706087,0.2235375 1.65623478,-0.1210875 0.913017391,0.1659125 C0.164191304,0.4545375 -0.193852174,1.2684125 0.105756522,1.9841625 L0.122321739,2.0226625 Z" id="Fill-3" fill="#003B49" mask="url(#mask-2)"></path>
                </g>
                <g id="Group-8">
                    <mask id="mask-4" fill="white">
                        <use xlink:href="#path-3"></use>
                    </mask>
                    <g id="Clip-7"></g>
                    <path d="M6.58019119,13.6185502 L26.821491,13.6185502 L26.821491,35.5111853 C26.1162751,35.7671256 25.5165853,36.2468098 25.1106147,36.8772519 L22.4288537,33.8879818 C21.7971136,33.1843361 20.8919648,32.7716554 19.9471346,32.7579502 C19.0390423,32.7457677 18.1797887,33.0853537 17.528099,33.7173186 C16.8764092,34.3492835 16.5130633,35.1959642 16.5009627,36.10508 L16.4992184,36.1249853 C16.488753,36.9747116 16.7970465,37.7955046 17.3661031,38.4305151 L22.2259774,43.8473572 L6.58019119,43.8473572 L6.58019119,13.6185502 Z M2.45006122,6.91025895 L30.8752017,6.91025895 L30.8752017,2.46050807 L2.45006122,2.46050807 L2.45006122,6.91025895 Z M50.645013,48.3520379 C50.4328704,48.1175256 50.3046692,47.8266695 50.2726189,47.5114484 L50.2023044,46.8383677 C50.1809375,46.6541081 50.1764679,46.5140098 50.1733065,46.37848 C50.1428914,45.6504695 50.0238474,45.2271291 49.3627824,44.4899818 C48.914187,43.9906098 48.1448704,43.9479712 47.6442751,44.3956765 C47.1421535,44.8433818 47.0995287,45.6108765 47.5481241,46.110466 C47.6503799,46.2260905 47.7053233,46.2932028 47.7312688,46.3296414 C47.7344302,46.3707572 47.7358474,46.4271011 47.7388998,46.4758309 C47.7450046,46.6236519 47.7512184,46.8261853 47.7785811,47.0881081 L47.8488956,47.7611888 C47.9343631,48.5897046 48.2730717,49.3540449 48.8301367,49.9738274 C49.300426,50.4977818 49.538514,51.1723853 49.4971975,51.8760309 C49.4574071,52.5794589 49.1492226,53.2237151 48.624317,53.6927396 L42.6305811,59.0425782 C42.2214491,59.4081607 41.6917468,59.5953572 41.1378432,59.5649011 C40.586774,59.5344449 40.0801828,59.2923186 39.7122583,58.8811607 C38.8714281,57.9431116 37.7144553,57.3902239 36.4538096,57.3187607 L33.752317,57.1695256 C32.7739103,57.1147046 31.8749753,56.685273 31.2201241,55.9542168 L30.5072771,55.1592028 C29.1902709,53.6912168 27.6196964,52.5110414 25.8431933,51.6551151 L21.7635371,49.684494 C21.6260696,49.6175993 21.5268662,49.4881607 21.5008117,49.3374028 C21.4673442,49.1287782 21.5757048,48.9230905 21.7665895,48.8332449 C22.5754784,48.4555888 23.4820444,48.4130589 24.3213484,48.7190344 L25.0785644,48.990094 C26.1621702,49.383087 27.1740444,49.935866 28.0867153,50.6363572 L28.9123925,51.2713677 C29.4099354,51.6520695 30.1183128,51.5943116 30.5470675,51.1327923 C30.974405,50.6729046 30.9805099,49.9632765 30.5608034,49.4957747 L19.1810885,36.8087256 C19.0192017,36.6290344 18.932208,36.3959361 18.9353694,36.1539186 L18.9353694,36.1356449 C18.9383128,35.8782905 19.0435119,35.637687 19.2252394,35.4610414 C19.4115455,35.2812414 19.6510507,35.1853046 19.9103966,35.1869361 C20.1791178,35.1913958 20.4355203,35.3086519 20.6126692,35.5082484 L25.35786,40.7986975 L25.3699606,40.8124028 L29.6160822,45.543873 C30.0648956,46.0434625 30.8341031,46.0859923 31.3346985,45.638287 C31.8354029,45.1905818 31.8794449,44.423087 31.4291052,43.9234975 L27.1801493,39.1859361 C27.0382122,39.021473 26.9756377,38.80828 27.0091052,38.5934554 C27.0869417,38.1077888 27.4885518,37.7575432 27.9691975,37.7347011 C27.995034,37.7362239 28.017927,37.7376379 28.0409291,37.7376379 C28.0593526,37.7376379 28.0761409,37.7362239 28.0929291,37.7347011 C28.3599061,37.7544975 28.6026818,37.8731677 28.7811388,38.0712414 L30.5150172,40.0052063 C30.5181786,40.0097747 30.521122,40.0114063 30.5242834,40.0143432 L33.2790843,43.0859537 C33.7278977,43.5854344 34.4969962,43.6281818 34.9975916,43.1803677 C35.498296,42.7326625 35.542556,41.9636449 35.0937426,41.465687 L32.3327279,38.3863537 C32.088535,38.1137712 31.9329711,37.807687 31.8703966,37.4802835 C31.8245015,37.247294 31.8674532,37.0143046 31.9923841,36.8254765 C32.0779606,36.6960379 32.2351597,36.5300519 32.5068243,36.4782765 L32.6196545,36.4583712 C32.8913191,36.411273 33.1632017,36.505687 33.3478725,36.711266 L37.2199648,41.0286414 C37.6685602,41.5296449 38.4377677,41.5706519 38.9399983,41.1229467 C39.4420109,40.6753502 39.4849627,39.9077467 39.0361493,39.4083747 L37.7952352,38.0269712 C37.5648872,37.7696168 37.4198977,37.4499361 37.3755287,37.105673 C37.332904,36.7599958 37.4687363,36.4173642 37.719143,36.2316905 C37.8823379,36.11128 38.0745308,36.0473221 38.276099,36.0473221 L38.2805686,36.0473221 C38.5463463,36.0473221 38.8011136,36.1599011 38.9796797,36.3579747 L41.1790507,38.8676695 C41.6216503,39.3732414 42.3908579,39.423494 42.8976671,38.98188 C43.4043673,38.540266 43.4562583,37.7726625 43.0121325,37.2687221 L40.8081828,34.7513046 C40.8037132,34.7482589 40.8004428,34.7421677 40.7974994,34.7392309 C40.1581283,34.0264484 39.2391346,33.6183361 38.2790423,33.6183361 L38.2715203,33.6183361 C37.5450465,33.6198589 36.8521493,33.8467572 36.2690298,34.2777116 C35.892166,34.5563853 35.5851807,34.9113081 35.3609375,35.3116975 L35.1624218,35.0908905 C34.6680403,34.5396344 34.0148243,34.1863432 33.3111346,34.0646274 L33.3111346,2.41025544 C33.3111346,1.09759579 32.2413736,0.0299992982 30.9241493,0.0299992982 L2.40122264,0.0299992982 C1.08399832,0.0299992982 0.0143463312,1.09759579 0.0143463312,2.41025544 L0.0143463312,22.2562379 C0.0143463312,22.926273 0.560509853,23.4699151 1.23214927,23.4699151 C1.90509686,23.4699151 2.45006122,22.926273 2.45006122,22.2562379 L2.45006122,9.34076772 L30.8767279,9.34076772 L30.8767279,34.5670449 C30.513491,34.8061256 30.1990927,35.1199326 29.9533736,35.4975888 C29.8923254,35.5888484 29.8358558,35.6864168 29.7839648,35.7837677 C29.6176084,35.684894 29.4404595,35.5996168 29.2588411,35.5309818 L29.2588411,13.0108414 C29.2588411,12.0057888 28.440904,11.1880414 27.4319732,11.1880414 L5.97123522,11.1880414 C4.96383061,11.1880414 4.14414927,12.0057888 4.14414927,13.0108414 L4.14414927,44.455066 C4.14414927,45.4601186 4.96383061,46.2794975 5.97123522,46.2794975 L21.7100109,46.2794975 C21.3788243,46.3647747 21.0506901,46.4835537 20.7332394,46.6327888 C19.5579522,47.1840449 18.8865308,48.46168 19.1000906,49.7377923 C19.1855581,50.2526098 19.4099103,50.7277256 19.7381535,51.119087 L2.45006122,51.119087 L2.45006122,31.8609081 C2.45006122,31.190873 1.90509686,30.6457081 1.23214927,30.6457081 C0.560509853,30.6457081 0.0143463312,31.190873 0.0143463312,31.8609081 L0.0143463312,51.166294 C0.0143463312,52.4804765 1.08399832,53.5495958 2.40122264,53.5495958 L24.1764679,53.5495958 L24.7823715,53.8404519 C26.272057,54.5607396 27.5876461,55.550673 28.6926189,56.7795782 L29.4054658,57.5744835 C30.4922331,58.7882695 31.9894407,59.5070344 33.6164847,59.5953572 L36.3195036,59.7461151 C36.9297677,59.778094 37.4916294,60.0477396 37.897491,60.5015361 C38.6988579,61.3954239 39.8024134,61.9238379 41.0036461,61.992473 C41.0891136,61.9969326 41.1743631,61.9999782 41.2584134,61.9999782 C42.3680738,61.9999782 43.424208,61.5964344 44.2575161,60.8548274 L50.2480906,55.503466 C51.2570214,54.6004414 51.8552939,53.3607677 51.929969,52.0100379 C52.0034449,50.6591993 51.5484176,49.3602449 50.645013,48.3520379 L50.645013,48.3520379 Z" id="Fill-6" fill="#003B49" mask="url(#mask-4)"></path>
                </g>
                <path d="M44.8304397,41.8298885 L44.8580995,41.8448434 C45.070468,41.9477915 45.2937408,42 45.5135561,42 C46.0607673,42 46.5878985,41.693559 46.8464109,41.1662668 C47.2097113,40.4260014 46.9062518,39.5324488 46.1707414,39.1677907 L46.1428157,39.1528358 C45.4074384,38.7901806 44.5174057,39.0950193 44.1526426,39.8334153 C43.7913369,40.5736806 44.0929347,41.4691026 44.8304397,41.8298885" id="Fill-9" fill="#003B49"></path>
                <path d="M20.9988264,27.0012824 C20.9706306,26.4226227 20.4459915,25.9750479 19.8262328,26.0010804 C17.6388103,26.093834 15.6206723,26.9768897 14.1442883,28.487288 C12.6675751,29.9978913 11.9093608,31.955147 12.0086495,33.9985969 C12.0228022,34.2882342 12.1607093,34.5448697 12.3727811,34.7256624 C12.585182,34.9068651 12.8711992,35.0120201 13.1811334,34.9989014 C13.800563,34.9725614 14.2800011,34.4821457 14.2518053,33.9035884 C14.1798347,32.4199401 14.7304754,30.9987083 15.8026832,29.901858 C16.8746716,28.8051102 18.3400845,28.1640339 19.9280448,28.0966978 C20.5474744,28.0704603 21.0269125,27.5799422 20.9988264,27.0012824" id="Fill-11" fill="#003B49"></path>
            </g>
        </g>
    </g>
</svg>