<?xml version="1.0" encoding="UTF-8"?>
<svg width="61px" height="61px" viewBox="0 0 61 61" version="1.1" xmlns="http://www.w3.org/2000/svg" xmlns:xlink="http://www.w3.org/1999/xlink">
    <!-- Generator: Sketch 64 (93537) - https://sketch.com -->
    <title>Group 22</title>
    <desc>Created with Sketch.</desc>
    <defs>
        <polygon id="path-1" points="2.3828125e-05 0 61 0 61 60.9999762 2.3828125e-05 60.9999762"></polygon>
    </defs>
    <g id="Careers" stroke="none" stroke-width="1" fill="none" fill-rule="evenodd">
        <g id="Part-Time-Jobs" transform="translate(-632.000000, -531.000000)">
            <g id="Group-22" transform="translate(632.000000, 531.000000)">
                <g id="Group-3">
                    <mask id="mask-2" fill="white">
                        <use xlink:href="#path-1"></use>
                    </mask>
                    <g id="Clip-2"></g>
                    <path d="M3.39302969,44.7968512 C3.39302969,40.7237906 6.70656875,37.4101324 10.7797484,37.4101324 C14.852809,37.4101324 18.1664672,40.7237906 18.1664672,44.7968512 C18.1664672,48.8699117 14.852809,52.1835699 10.7797484,52.1835699 C6.70656875,52.1835699 3.39302969,48.8699117 3.39302969,44.7968512 L3.39302969,44.7968512 Z M46.9811039,9.11423398 C46.9811039,9.77117539 46.4466391,10.3056402 45.7896977,10.3056402 C45.1327562,10.3056402 44.5982914,9.77117539 44.5982914,9.11423398 L44.5982914,3.57419492 C44.5982914,2.91725352 45.1327562,2.38278867 45.7896977,2.38278867 C46.4466391,2.38278867 46.9811039,2.91725352 46.9811039,3.57419492 L46.9811039,9.11423398 Z M19.8170414,9.11423398 C19.8170414,9.77117539 19.2825766,10.3056402 18.6256352,10.3056402 C17.9686937,10.3056402 17.4342289,9.77117539 17.4342289,9.11423398 L17.4342289,3.57419492 C17.4342289,2.91725352 17.9686937,2.38278867 18.6256352,2.38278867 C19.2825766,2.38278867 19.8170414,2.91725352 19.8170414,3.57419492 L19.8170414,9.11423398 Z M55.0429926,5.24216367 L49.3639164,5.24216367 L49.3639164,3.57419492 C49.3639164,1.6033707 47.7605219,-2.3828125e-05 45.7896977,-2.3828125e-05 C43.8188734,-2.3828125e-05 42.2154789,1.6033707 42.2154789,3.57419492 L42.2154789,5.24216367 L22.1998539,5.24216367 L22.1998539,3.57419492 C22.1998539,1.6033707 20.5964594,-2.3828125e-05 18.6256352,-2.3828125e-05 C16.6548109,-2.3828125e-05 15.0514164,1.6033707 15.0514164,3.57419492 L15.0514164,5.2862457 C14.9501469,5.25824766 14.8439926,5.24216367 14.7337875,5.24216367 L9.98674844,5.24216367 C6.70192227,5.24216367 4.02971719,7.91448789 4.02971719,11.1991949 L4.02971719,31.492775 C4.02971719,32.1507887 4.56322891,32.6841813 5.22112344,32.6841813 C5.87901797,32.6841813 6.41252969,32.1507887 6.41252969,31.492775 L6.41252969,17.513648 L49.3639164,17.513648 C50.0218109,17.513648 50.5553227,16.9802555 50.5553227,16.3222418 C50.5553227,15.6643473 50.0218109,15.1308355 49.3639164,15.1308355 L6.41252969,15.1308355 L6.41252969,11.1991949 C6.41252969,9.2283707 8.01592422,7.62497617 9.98674844,7.62497617 L14.7337875,7.62497617 C14.8439926,7.62497617 14.9501469,7.60877305 15.0514164,7.58089414 L15.0514164,9.11423398 C15.0514164,11.0850582 16.6548109,12.6884527 18.6256352,12.6884527 C20.5964594,12.6884527 22.1998539,11.0850582 22.1998539,9.11423398 L22.1998539,7.62497617 L42.2154789,7.62497617 L42.2154789,9.11423398 C42.2154789,11.0850582 43.8188734,12.6884527 45.7896977,12.6884527 C47.7605219,12.6884527 49.3639164,11.0850582 49.3639164,9.11423398 L49.3639164,7.62497617 L55.0429926,7.62497617 C57.0136977,7.62497617 58.6172113,9.2283707 58.6172113,11.1991949 L58.6172113,56.4719176 C58.6172113,57.6547457 57.6547934,58.6171637 56.4719652,58.6171637 C55.289018,58.6171637 54.3267191,57.6547457 54.3267191,56.4719176 L54.3267191,53.3898688 C54.3267191,52.7319742 53.7932074,52.1984625 53.1353129,52.1984625 L39.2766371,52.1984625 C38.6188617,52.1984625 38.0852309,52.7319742 38.0852309,53.3898688 C38.0852309,54.0478824 38.6188617,54.581275 39.2766371,54.581275 L51.9439066,54.581275 L51.9439066,56.4719176 C51.9439066,57.2476422 52.1402504,57.9782125 52.4854008,58.6171637 L4.52736758,58.6171637 C3.34489687,58.6171637 2.38283633,57.6551031 2.38283633,56.4726324 L2.38283633,54.581275 L29.0494867,54.581275 C29.7073812,54.581275 30.240893,54.0478824 30.240893,53.3898688 C30.240893,52.7319742 29.7073812,52.1984625 29.0494867,52.1984625 L17.145432,52.1984625 C19.2272953,50.4055152 20.5492797,47.7534449 20.5492797,44.7968512 C20.5492797,39.4099078 16.1666918,35.0273199 10.7797484,35.0273199 C5.39280508,35.0273199 1.01021719,39.4099078 1.01021719,44.7968512 C1.01021719,47.7534449 2.33220156,50.4055152 4.41406484,52.1984625 L1.19143008,52.1984625 C0.533535547,52.1984625 2.3828125e-05,52.7319742 2.3828125e-05,53.3898688 L2.3828125e-05,56.4726324 C2.3828125e-05,58.9689859 2.03089492,60.9999762 4.52736758,60.9999762 L56.4719652,60.9999762 C58.9686762,60.9999762 61.0000238,58.9687477 61.0000238,56.4719176 L61.0000238,11.1991949 C61.0000238,7.91448789 58.3276996,5.24216367 55.0429926,5.24216367 L55.0429926,5.24216367 Z" id="Fill-1" fill="#003B49" mask="url(#mask-2)"></path>
                </g>
                <path d="M55.7069,15.293 C55.521,15.1071 55.263,15 55,15 C54.7369,15 54.479,15.1071 54.2929,15.293 C54.107,15.479 54,15.737 54,16 C54,16.263 54.1069,16.521 54.2929,16.7071 C54.4791,16.893 54.7369,17 55,17 C55.263,17 55.521,16.893 55.7069,16.7071 C55.8928,16.521 56,16.263 56,16 C56,15.737 55.8929,15.479 55.7069,15.293" id="Fill-4" fill="#003B49"></path>
                <path d="M26.5,43.6315789 C25.3246711,43.6315789 24.3684211,42.6753289 24.3684211,41.5 C24.3684211,40.3246711 25.3246711,39.3684211 26.5,39.3684211 C27.6753289,39.3684211 28.6315789,40.3246711 28.6315789,41.5 C28.6315789,42.6753289 27.6753289,43.6315789 26.5,43.6315789 M26.5,37 C24.0187237,37 22,39.0187237 22,41.5 C22,43.9812763 24.0187237,46 26.5,46 C28.9812763,46 31,43.9812763 31,41.5 C31,39.0187237 28.9812763,37 26.5,37" id="Fill-6" fill="#003B49"></path>
                <path d="M38.5,43.6315789 C37.3246711,43.6315789 36.3684211,42.6753289 36.3684211,41.5 C36.3684211,40.3246711 37.3246711,39.3684211 38.5,39.3684211 C39.6753289,39.3684211 40.6315789,40.3246711 40.6315789,41.5 C40.6315789,42.6753289 39.6753289,43.6315789 38.5,43.6315789 M38.5,37 C36.0187237,37 34,39.0187237 34,41.5 C34,43.9812763 36.0187237,46 38.5,46 C40.9812763,46 43,43.9812763 43,41.5 C43,39.0187237 40.9812763,37 38.5,37" id="Fill-8" fill="#003B49"></path>
                <path d="M49.5,43.6315789 C48.3246711,43.6315789 47.3684211,42.6753289 47.3684211,41.5 C47.3684211,40.3246711 48.3246711,39.3684211 49.5,39.3684211 C50.6753289,39.3684211 51.6315789,40.3246711 51.6315789,41.5 C51.6315789,42.6753289 50.6753289,43.6315789 49.5,43.6315789 M49.5,37 C47.0187237,37 45,39.0187237 45,41.5 C45,43.9812763 47.0187237,46 49.5,46 C51.9812763,46 54,43.9812763 54,41.5 C54,39.0187237 51.9812763,37 49.5,37" id="Fill-10" fill="#003B49"></path>
                <path d="M15.5,30.6315789 C14.3246711,30.6315789 13.3684211,29.6753289 13.3684211,28.5 C13.3684211,27.3246711 14.3246711,26.3684211 15.5,26.3684211 C16.6753289,26.3684211 17.6315789,27.3246711 17.6315789,28.5 C17.6315789,29.6753289 16.6753289,30.6315789 15.5,30.6315789 M15.5,24 C13.0187237,24 11,26.0187237 11,28.5 C11,30.9812763 13.0187237,33 15.5,33 C17.9812763,33 20,30.9812763 20,28.5 C20,26.0187237 17.9812763,24 15.5,24" id="Fill-12" fill="#003B49"></path>
                <path d="M38.5,30.6315789 C37.3246711,30.6315789 36.3684211,29.6753289 36.3684211,28.5 C36.3684211,27.3246711 37.3246711,26.3684211 38.5,26.3684211 C39.6753289,26.3684211 40.6315789,27.3246711 40.6315789,28.5 C40.6315789,29.6753289 39.6753289,30.6315789 38.5,30.6315789 M38.5,24 C36.0187237,24 34,26.0187237 34,28.5 C34,30.9812763 36.0187237,33 38.5,33 C40.9812763,33 43,30.9812763 43,28.5 C43,26.0187237 40.9812763,24 38.5,24" id="Fill-14" fill="#003B49"></path>
                <path d="M49.5,30.6315789 C48.3246711,30.6315789 47.3684211,29.6753289 47.3684211,28.5 C47.3684211,27.3246711 48.3246711,26.3684211 49.5,26.3684211 C50.6753289,26.3684211 51.6315789,27.3246711 51.6315789,28.5 C51.6315789,29.6753289 50.6753289,30.6315789 49.5,30.6315789 M49.5,24 C47.0187237,24 45,26.0187237 45,28.5 C45,30.9812763 47.0187237,33 49.5,33 C51.9812763,33 54,30.9812763 54,28.5 C54,26.0187237 51.9812763,24 49.5,24" id="Fill-16" fill="#003B49"></path>
                <path d="M26.5,30.6315789 C25.3246711,30.6315789 24.3684211,29.6753289 24.3684211,28.5 C24.3684211,27.3246711 25.3246711,26.3684211 26.5,26.3684211 C27.6753289,26.3684211 28.6315789,27.3246711 28.6315789,28.5 C28.6315789,29.6753289 27.6753289,30.6315789 26.5,30.6315789 M26.5,24 C24.0187237,24 22,26.0187237 22,28.5 C22,30.9812763 24.0187237,33 26.5,33 C28.9812763,33 31,30.9812763 31,28.5 C31,26.0187237 28.9812763,24 26.5,24" id="Fill-18" fill="#003B49"></path>
                <path d="M15.6613662,42.3436793 C15.2097388,41.8854402 14.4778387,41.8854402 14.0259801,42.3436793 L10.260684,46.1662894 L8.9739043,44.860003 C8.52227689,44.4016466 7.79037687,44.4016466 7.33863384,44.860003 C6.88712205,45.3183594 6.88712205,46.0615893 7.33863384,46.520063 L9.44310656,48.6562034 C9.66001722,48.8762849 9.95404909,49 10.260684,49 C10.5672032,49 10.8613507,48.8762849 11.0782614,48.6562034 L15.6613662,44.0037393 C16.1128779,43.5452655 16.1128779,42.8020356 15.6613662,42.3436793" id="Fill-20" fill="#003B49"></path>
            </g>
        </g>
    </g>
</svg>