<svg width="61" height="55" viewBox="0 0 61 55" fill="none" xmlns="http://www.w3.org/2000/svg">
<path fill-rule="evenodd" clip-rule="evenodd" d="M12.0764 25C12.767 25 13.3257 24.552 13.3257 23.9995C13.3257 23.448 12.767 23 12.0764 23H10.5764C9.88568 23 9.32568 23.448 9.32568 23.9995C9.32568 24.552 9.88568 25 10.5764 25H12.0764Z" fill="#003B49"/>
<path fill-rule="evenodd" clip-rule="evenodd" d="M17.5754 25H19.0746C19.7655 25 20.3257 24.552 20.3257 23.9995C20.3257 23.448 19.7655 23 19.0746 23H17.5754C16.8832 23 16.3257 23.448 16.3257 23.9995C16.3257 24.552 16.8832 25 17.5754 25" fill="#003B49"/>
<path fill-rule="evenodd" clip-rule="evenodd" d="M36.575 13H38.075C38.7657 13 39.3257 12.552 39.3257 12.0005C39.3257 11.448 38.7657 11 38.075 11H36.575C35.8844 11 35.3257 11.448 35.3257 12.0005C35.3257 12.552 35.8844 13 36.575 13" fill="#003B49"/>
<path fill-rule="evenodd" clip-rule="evenodd" d="M29.5754 13H31.0759C31.7655 13 32.3257 12.552 32.3257 12.0005C32.3257 11.448 31.7655 11 31.0759 11H29.5754C28.8832 11 28.3257 11.448 28.3257 12.0005C28.3257 12.552 28.8832 13 29.5754 13" fill="#003B49"/>
<path fill-rule="evenodd" clip-rule="evenodd" d="M23.5754 13H25.0759C25.7655 13 26.3257 12.552 26.3257 12.0005C26.3257 11.448 25.7655 11 25.0759 11H23.5754C22.8832 11 22.3257 11.448 22.3257 12.0005C22.3257 12.552 22.8832 13 23.5754 13" fill="#003B49"/>
<path fill-rule="evenodd" clip-rule="evenodd" d="M17.5754 13H19.0746C19.7655 13 20.3257 12.552 20.3257 12.0005C20.3257 11.448 19.7655 11 19.0746 11H17.5754C16.8832 11 16.3257 11.448 16.3257 12.0005C16.3257 12.552 16.8832 13 17.5754 13" fill="#003B49"/>
<path fill-rule="evenodd" clip-rule="evenodd" d="M9.32568 12.0005C9.32568 12.552 9.88587 13 10.5754 13H12.0773C12.7655 13 13.3257 12.552 13.3257 12.0005C13.3257 11.448 12.7655 11 12.0773 11H10.5754C9.88587 11 9.32568 11.448 9.32568 12.0005" fill="#003B49"/>
<path fill-rule="evenodd" clip-rule="evenodd" d="M24.3257 40C23.7729 40 23.3257 40.5589 23.3257 41.2497V42.7503C23.3257 43.4398 23.7729 44 24.3257 44C24.8785 44 25.3257 43.4398 25.3257 42.7503V41.2497C25.3257 40.5589 24.8785 40 24.3257 40" fill="#003B49"/>
<path fill-rule="evenodd" clip-rule="evenodd" d="M25.3257 35.2497C25.3257 34.5602 24.8777 34 24.3262 34C23.7737 34 23.3257 34.5602 23.3257 35.2497V36.7503C23.3257 37.4411 23.7737 38 24.3262 38C24.8777 38 25.3257 37.4411 25.3257 36.7503V35.2497Z" fill="#003B49"/>
<path fill-rule="evenodd" clip-rule="evenodd" d="M33.3257 41.2497V42.7503C33.3257 43.4398 33.7739 44 34.3257 44C34.8785 44 35.3257 43.4398 35.3257 42.7503V41.2497C35.3257 40.5602 34.8785 40 34.3257 40C33.7739 40 33.3257 40.5602 33.3257 41.2497" fill="#003B49"/>
<path fill-rule="evenodd" clip-rule="evenodd" d="M46.3257 35.2497C46.3257 34.5602 45.8777 34 45.3262 34C44.7737 34 44.3257 34.5602 44.3257 35.2497V36.7503C44.3257 37.4411 44.7737 38 45.3262 38C45.8777 38 46.3257 37.4411 46.3257 36.7503V35.2497Z" fill="#003B49"/>
<path fill-rule="evenodd" clip-rule="evenodd" d="M46.3257 22.2497C46.3257 21.5589 45.8777 21 45.3262 21C44.7737 21 44.3257 21.5589 44.3257 22.2497V23.7489C44.3257 24.4398 44.7737 25 45.3262 25C45.8777 25 46.3257 24.4398 46.3257 23.7489V22.2497Z" fill="#003B49"/>
<path fill-rule="evenodd" clip-rule="evenodd" d="M46.3257 28.2493C46.3257 27.56 45.8777 27 45.3262 27C44.7737 27 44.3257 27.56 44.3257 28.2493V29.748C44.3257 30.4387 44.7737 31 45.3262 31C45.8777 31 46.3257 30.4387 46.3257 29.748V28.2493Z" fill="#003B49"/>
<path fill-rule="evenodd" clip-rule="evenodd" d="M45.3257 40C44.7729 40 44.3257 40.5589 44.3257 41.2497V42.7503C44.3257 43.4398 44.7729 44 45.3257 44C45.8785 44 46.3257 43.4398 46.3257 42.7503V41.2497C46.3257 40.5589 45.8785 40 45.3257 40" fill="#003B49"/>
<mask id="mask0" mask-type="alpha" maskUnits="userSpaceOnUse" x="0" y="0" width="61" height="55">
<path fill-rule="evenodd" clip-rule="evenodd" d="M0.326172 0.1521H60.2964V55.0001H0.326172V0.1521Z" fill="white"/>
</mask>
<g mask="url(#mask0)">
<path fill-rule="evenodd" clip-rule="evenodd" d="M59.8662 48.4962L55.1808 44.4362C54.6595 43.9828 53.8702 44.0402 53.4195 44.5602C52.9662 45.0828 53.0235 45.8722 53.5448 46.3228L55.6982 48.1908H47.1782V47.9402C47.1782 47.2508 46.6182 46.6908 45.9288 46.6908C45.2382 46.6908 44.6782 47.2508 44.6782 47.9402V48.1908H36.5595V47.5228C36.5595 46.8348 35.9995 46.2748 35.3088 46.2748C34.6182 46.2748 34.0595 46.8348 34.0595 47.5228V48.1908H25.9382V47.9402C25.9382 47.2508 25.3795 46.6908 24.6875 46.6908C23.9995 46.6908 23.4408 47.2508 23.4408 47.9402V48.1908H15.3182V46.8575C15.3182 46.1682 14.7595 45.6095 14.0688 45.6095C13.3795 45.6095 12.8208 46.1682 12.8208 46.8575V48.1908H7.50884V4.74949L9.37817 6.90415C9.62351 7.19082 9.97284 7.33482 10.3222 7.33482C10.6128 7.33482 10.9022 7.23482 11.1395 7.02949C11.6608 6.57749 11.7168 5.78949 11.2648 5.26815L7.20484 0.581488C7.19951 0.576154 7.19551 0.572154 7.19017 0.566821C7.05817 0.421488 6.89151 0.302821 6.69684 0.230821C6.20884 0.0481542 5.65817 0.189488 5.31684 0.581488L1.25684 5.26815C0.804839 5.78949 0.860839 6.57749 1.38084 7.02949C1.90217 7.48149 2.69284 7.42549 3.14351 6.90415L5.01017 4.74949V48.1908H1.57551C0.886172 48.1908 0.326172 48.7482 0.326172 49.4402C0.326172 50.1295 0.886172 50.6895 1.57551 50.6895H5.01017V53.7495C5.01017 54.4415 5.57017 55.0002 6.26084 55.0002C6.94884 55.0002 7.50884 54.4415 7.50884 53.7495V50.6895H55.6982L53.5448 52.5548C53.0235 53.0082 52.9662 53.7975 53.4182 54.3188C53.6648 54.6042 54.0128 54.7495 54.3622 54.7495C54.6528 54.7495 54.9435 54.6495 55.1795 54.4455L59.8662 50.3828C59.8728 50.3762 59.8782 50.3708 59.8848 50.3668C60.0315 50.2348 60.1462 50.0695 60.2195 49.8762C60.3995 49.3868 60.2595 48.8375 59.8662 48.4962" fill="#003B49"/>
</g>
<path fill-rule="evenodd" clip-rule="evenodd" d="M10.3257 38.9444C10.3257 41.1806 12.1198 43 14.325 43C16.5316 43 18.327 41.1806 18.327 38.9444C18.327 38.076 18.0538 37.2702 17.5928 36.6082L23.4888 28.6355C23.8959 28.778 24.332 28.858 24.7877 28.858C25.5219 28.858 26.2115 28.6542 26.8025 28.3026L31.5912 32.6445C31.3719 33.1467 31.2497 33.7021 31.2497 34.2854C31.2497 36.5217 33.0439 38.3424 35.2504 38.3424C37.4543 38.3424 39.2485 36.5217 39.2485 34.2854C39.2485 33.144 38.7796 32.1118 38.0309 31.3739L45.1365 16.7084C45.3243 16.7364 45.5161 16.7497 45.7079 16.7497C47.9157 16.7497 49.7098 14.9317 49.7098 12.6954C49.7098 12.0335 49.5522 11.4102 49.2751 10.8588L53.9627 6.13187C54.4447 5.64572 54.4473 4.85591 53.9666 4.36711C53.4872 3.87963 52.7084 3.87697 52.2263 4.36311L47.5388 9.08867C46.9897 8.80231 46.3685 8.63716 45.7079 8.63716C43.5052 8.63716 41.7111 10.4565 41.7111 12.6954C41.7111 13.8342 42.1787 14.8678 42.9287 15.6043L35.8204 30.2724C35.6366 30.2458 35.4435 30.2285 35.2504 30.2285C34.5136 30.2285 33.8254 30.4309 33.2317 30.7839L28.4443 26.4406C28.6649 25.9398 28.7884 25.3844 28.7884 24.7997C28.7884 22.5634 26.9916 20.7441 24.7877 20.7441C22.5812 20.7441 20.7884 22.5634 20.7884 24.7997C20.7884 25.6707 21.0602 26.4765 21.5213 27.1358L15.624 35.1099C15.2182 34.966 14.7821 34.8901 14.325 34.8901C12.1198 34.8901 10.3257 36.7081 10.3257 38.9444M45.7079 11.1345C46.5576 11.1345 47.2472 11.8337 47.2472 12.6954C47.2472 13.5532 46.5576 14.2551 45.7079 14.2551C44.862 14.2551 44.1725 13.5532 44.1725 12.6954C44.1725 11.8337 44.862 11.1345 45.7079 11.1345M14.325 40.5054C13.4779 40.5054 12.7883 39.8048 12.7883 38.9444C12.7883 38.084 13.4779 37.3847 14.325 37.3847C15.1748 37.3847 15.8657 38.084 15.8657 38.9444C15.8657 39.8048 15.1748 40.5054 14.325 40.5054M35.2504 35.8451C34.3993 35.8451 33.7111 35.1458 33.7111 34.2854C33.7111 33.425 34.3993 32.7244 35.2504 32.7244C36.0963 32.7244 36.7858 33.425 36.7858 34.2854C36.7858 35.1458 36.0963 35.8451 35.2504 35.8451M24.7877 23.24C25.6362 23.24 26.3257 23.9406 26.3257 24.7997C26.3257 25.6614 25.6362 26.3593 24.7877 26.3593C23.9379 26.3593 23.2497 25.6614 23.2497 24.7997C23.2497 23.9406 23.9379 23.24 24.7877 23.24" fill="#003B49"/>
</svg>
