<svg width="50" height="63" viewBox="0 0 50 63" fill="none" xmlns="http://www.w3.org/2000/svg">
<mask id="mask0" mask-type="alpha" maskUnits="userSpaceOnUse" x="0" y="0" width="50" height="63">
<path fill-rule="evenodd" clip-rule="evenodd" d="M0.174805 0H49.1748V63H0.174805V0Z" fill="white"/>
</mask>
<g mask="url(#mask0)">
<path fill-rule="evenodd" clip-rule="evenodd" d="M47.8638 6.0707H34.9698L29.3224 0.386598C28.8102 -0.128866 27.978 -0.128866 27.4658 0.386598L21.4356 6.4573C20.9221 6.97276 20.9221 7.80899 21.4356 8.32586L27.0803 14.01V18.7458H17.2369C16.5146 18.7458 15.9259 19.3383 15.9259 20.0681V22.7098H10.6751V20.0681C10.6751 19.3383 10.0878 18.7458 9.36135 18.7458H1.48856C0.762098 18.7458 0.174805 19.3383 0.174805 20.0681V27.9933C0.174805 28.7231 0.762098 29.3142 1.48856 29.3142H4.02561V40.8575C4.02561 41.5873 4.61429 42.177 5.33658 42.177H17.0059L15.7409 43.4516C15.2301 43.9657 15.2301 44.8033 15.7409 45.3188C15.9969 45.5779 16.3337 45.7054 16.6705 45.7054C17.0045 45.7054 17.3399 45.5779 17.5974 45.3188L19.4372 43.467C19.9271 44.5526 20.7259 45.5401 21.7989 46.3623C23.2574 47.4773 25.1 48.1804 27.0803 48.3989V52.433H21.8323C21.1058 52.433 20.5199 53.0241 20.5199 53.7525V61.6805C20.5199 62.4089 21.1058 63 21.8323 63H34.9573C35.681 63 36.2683 62.4089 36.2683 61.6805V53.7525C36.2683 53.0241 35.681 52.433 34.9573 52.433H29.7065V48.3989C31.6882 48.1804 33.5294 47.4773 34.9879 46.3623C36.0637 45.5387 36.8639 44.5498 37.351 43.4628L39.195 45.3188C39.4525 45.5779 39.7879 45.7054 40.1246 45.7054C40.46 45.7054 40.7968 45.5765 41.0515 45.3188C41.5664 44.8033 41.5664 43.9657 41.0515 43.4516L39.7865 42.177H47.8638C48.5889 42.177 49.1748 41.5873 49.1748 40.8575V7.39158C49.1748 6.6618 48.5889 6.0707 47.8638 6.0707V6.0707ZM23.1432 60.3582H33.6435V55.0747H23.1432V60.3582ZM28.3955 3.18803L32.5719 7.39158L28.3955 11.5937L24.219 7.39158L28.3955 3.18803ZM18.5521 26.6724H38.2389V21.3889H18.5521V26.6724ZM2.79953 26.6724H8.04898V21.3889H2.79953V26.6724ZM6.65173 29.3142H9.36135C10.0878 29.3142 10.6751 28.7231 10.6751 27.9933V25.353H15.9259V27.9933C15.9259 28.7231 16.5146 29.3142 17.2369 29.3142H27.0803V33.351C25.1 33.5668 23.2574 34.2685 21.7989 35.3849C20.7315 36.2001 19.9382 37.1806 19.4483 38.2578L17.5974 36.3934C17.0866 35.8793 16.253 35.8793 15.7409 36.3934C15.2301 36.9103 15.2301 37.7465 15.7409 38.262L17.0059 39.5352H6.65173V29.3142ZM28.3955 45.8272C24.5948 45.8272 21.5052 43.6057 21.5052 40.8743C21.5052 38.1429 24.5948 35.92 28.3955 35.92C32.1934 35.92 35.2844 38.1429 35.2844 40.8743C35.2844 43.6057 32.1934 45.8272 28.3955 45.8272V45.8272ZM46.5515 39.5352H39.7865L41.0515 38.262C41.5664 37.7479 41.5664 36.9103 41.0515 36.3934C40.5394 35.8793 39.7099 35.8793 39.195 36.3934L37.3413 38.2606C36.8528 37.182 36.0581 36.2015 34.9879 35.3849C33.5294 34.2685 31.6882 33.5668 29.7065 33.351V29.3142H39.5485C40.2763 29.3142 40.8622 28.7231 40.8622 27.9933V20.0681C40.8622 19.3383 40.2763 18.7458 39.5485 18.7458H29.7065V14.01L34.9684 8.71245H46.5515V39.5352Z" fill="#003B49"/>
</g>
</svg>
