<svg width="58" height="58" viewBox="0 0 58 58" fill="none" xmlns="http://www.w3.org/2000/svg">
<path fill-rule="evenodd" clip-rule="evenodd" d="M54.7568 10.6823H50.1165V1.19519C50.1165 0.534756 49.5727 0 48.9027 0H29.19C28.5188 0 27.9763 0.534756 27.9763 1.19519V3.23547C25.7127 1.7261 23.12 0.727115 20.3842 0.341116C20.0368 0.292385 19.683 0.393694 19.4189 0.621959C19.1522 0.850224 19 1.1798 19 1.52476V17.1597C19 17.4597 19.1158 17.7508 19.3226 17.9714L30.1046 29.4334C30.3348 29.6796 30.6562 29.8168 30.9918 29.8168C31.0061 29.8168 31.0204 29.8168 31.0347 29.8156C31.3847 29.8053 31.7138 29.645 31.935 29.3744C34.5459 26.1967 35.9834 22.1918 35.9834 18.0971C35.9834 13.7536 34.3898 9.56278 31.4913 6.29653C31.144 5.9054 30.7797 5.52966 30.4025 5.1706V2.39166H47.689V10.6823H43.0486C41.2599 10.6823 39.8042 12.116 39.8042 13.8819V30.803C39.8042 32.5663 41.2599 34 43.0486 34H54.7568C56.5456 34 58 32.5663 58 30.803V13.8819C58 12.116 56.5456 10.6823 54.7568 10.6823V10.6823ZM33.5559 18.0971C33.5559 21.1799 32.6153 24.2038 30.8877 26.7507L21.4262 16.689V2.96745C23.8888 3.54453 26.1186 4.69355 27.9763 6.25422V13.2804C27.9763 13.9396 28.5188 14.4756 29.19 14.4756C29.8587 14.4756 30.4025 13.9396 30.4025 13.2804V8.80361C32.3877 11.4184 33.5559 14.65 33.5559 18.0971V18.0971ZM55.5751 30.803C55.5751 31.248 55.2082 31.6096 54.7568 31.6096H43.0486C42.5985 31.6096 42.2304 31.248 42.2304 30.803V13.8819C42.2304 13.4356 42.5985 13.074 43.0486 13.074H54.7568C55.2082 13.074 55.5751 13.4356 55.5751 13.8819V30.803Z" fill="#003B49"/>
<path fill-rule="evenodd" clip-rule="evenodd" d="M45.7523 41.0683H18.2577C16.4678 41.0683 15.0125 42.5196 15.0125 44.3042V48.3248H10.2366V34.2762C12.6434 35.4486 15.351 36.1101 18.2082 36.1101C21.9259 36.1101 25.503 34.9999 28.5529 32.8963C28.8431 32.6978 29.0319 32.3827 29.0696 32.0351C29.1087 31.6849 28.9915 31.3373 28.752 31.0805L17.3179 18.7919C17.1083 18.5663 16.9937 18.2745 16.9937 17.9684V1.2092C16.9937 0.857724 16.8414 0.525705 16.5759 0.294848C16.309 0.0652877 15.9563 -0.0371713 15.6087 0.0121128C11.3131 0.622976 7.36503 2.76294 4.49478 6.03385C1.59589 9.33718 0 13.5756 0 17.9684C0 24.1224 3.09285 29.5696 7.80892 32.8509V49.5348C7.80892 50.2014 8.35303 50.7436 9.0234 50.7436H15.0112V54.7641C15.0112 56.5487 16.4678 58 18.2577 58H45.7523C47.5421 58 49 56.5487 49 54.7641V44.3042C49 42.5196 47.5421 41.0683 45.7523 41.0683V41.0683ZM9.0234 21.8372C8.35303 21.8372 7.80892 22.3806 7.80892 23.0472V29.7836C4.513 26.8992 2.42768 22.6711 2.42768 17.9684C2.42768 10.6691 7.55508 4.32317 14.5661 2.66826V17.9684C14.5661 18.8866 14.911 19.7633 15.5371 20.4352L25.9781 31.6551C23.6155 32.9909 20.9561 33.6913 18.2082 33.6913C15.3002 33.6913 12.5771 32.9027 10.2366 31.5319V23.0472C10.2366 22.3806 9.69248 21.8372 9.0234 21.8372V21.8372ZM46.571 54.7641C46.571 55.2155 46.2039 55.5812 45.7523 55.5812H18.2577C17.8073 55.5812 17.4389 55.2155 17.4389 54.7641V44.3042C17.4389 43.8529 17.8073 43.4871 18.2577 43.4871H45.7523C46.2039 43.4871 46.571 43.8529 46.571 44.3042V54.7641Z" fill="#003B49"/>
<path fill-rule="evenodd" clip-rule="evenodd" d="M22.0387 48H23.9624C24.5352 48 25 47.5517 25 46.9995C25 46.4483 24.5352 46 23.9624 46H22.0387C21.4648 46 21 46.4483 21 46.9995C21 47.5517 21.4648 48 22.0387 48" fill="#003B49"/>
<path fill-rule="evenodd" clip-rule="evenodd" d="M32.7774 46H29.2239C28.5483 46 28 46.4483 28 46.9995C28 47.5517 28.5483 48 29.2239 48H32.7774C33.4517 48 34 47.5517 34 46.9995C34 46.4483 33.4517 46 32.7774 46" fill="#003B49"/>
<path fill-rule="evenodd" clip-rule="evenodd" d="M40.9607 46H39.0382C38.4656 46 38 46.4483 38 46.9995C38 47.5517 38.4656 48 39.0382 48H40.9607C41.5344 48 42 47.5517 42 46.9995C42 46.4483 41.5344 46 40.9607 46" fill="#003B49"/>
<path fill-rule="evenodd" clip-rule="evenodd" d="M25.8685 51H22.1315C21.5075 51 21 51.4483 21 52.0005C21 52.5517 21.5075 53 22.1315 53H25.8685C26.4925 53 27 52.5517 27 52.0005C27 51.4483 26.4925 51 25.8685 51" fill="#003B49"/>
<path fill-rule="evenodd" clip-rule="evenodd" d="M32.9349 51H32.0651C31.4766 51 31 51.4483 31 52.0005C31 52.5517 31.4766 53 32.0651 53H32.9349C33.5223 53 34 52.5517 34 52.0005C34 51.4483 33.5223 51 32.9349 51" fill="#003B49"/>
<path fill-rule="evenodd" clip-rule="evenodd" d="M40.8675 51H37.1325C36.5074 51 36 51.4483 36 52.0005C36 52.5517 36.5074 53 37.1325 53H40.8675C41.4926 53 42 52.5517 42 52.0005C42 51.4483 41.4926 51 40.8675 51" fill="#003B49"/>
<path fill-rule="evenodd" clip-rule="evenodd" d="M51.8566 17H46.1434C45.5123 17 45 17.4472 45 17.9995C45 18.5517 45.5123 19 46.1434 19H51.8566C52.4877 19 53 18.5517 53 17.9995C53 17.4472 52.4877 17 51.8566 17" fill="#003B49"/>
<path fill-rule="evenodd" clip-rule="evenodd" d="M51.8566 21H46.1434C45.5123 21 45 21.4472 45 21.9995C45 22.5517 45.5123 23 46.1434 23H51.8566C52.4877 23 53 22.5517 53 21.9995C53 21.4472 52.4877 21 51.8566 21" fill="#003B49"/>
<path fill-rule="evenodd" clip-rule="evenodd" d="M51.8566 26H46.1434C45.5123 26 45 26.4483 45 26.9995C45 27.5517 45.5123 28 46.1434 28H51.8566C52.4877 28 53 27.5517 53 26.9995C53 26.4483 52.4877 26 51.8566 26" fill="#003B49"/>
</svg>
